<svg id="Check_Your_Risk_Icon" data-name="Check Your Risk Icon" xmlns="http://www.w3.org/2000/svg" width="26" height="26" viewBox="0 0 26 26">
  <path id="Path_116" data-name="Path 116" d="M15.438,0H2.979A2.977,2.977,0,0,0,0,2.979V19.771A2.977,2.977,0,0,0,2.979,22.75H11.8a7.732,7.732,0,0,1-1.506-4.6,7.86,7.86,0,0,1,7.854-7.854,2.264,2.264,0,0,1,.271.011V2.979A2.977,2.977,0,0,0,15.438,0ZM4.333,4.333H8.667a1.083,1.083,0,0,1,0,2.167H4.333a1.083,1.083,0,1,1,0-2.167ZM9.75,15.167H4.333a1.083,1.083,0,1,1,0-2.167H9.75a1.083,1.083,0,1,1,0,2.167Zm4.333-4.333H4.333a1.083,1.083,0,1,1,0-2.167h9.75a1.083,1.083,0,0,1,0,2.167Z" fill="#111214"/>
  <path id="Path_117" data-name="Path 117" d="M17.188,22.875a5.687,5.687,0,1,1,5.688-5.687A5.694,5.694,0,0,1,17.188,22.875Zm0-9.208a3.521,3.521,0,1,0,3.521,3.521A3.525,3.525,0,0,0,17.188,13.667Z" transform="translate(0.958 0.958)" fill="#111214"/>
  <path id="Path_118" data-name="Path 118" d="M23.354,24.438a1.08,1.08,0,0,1-.766-.317L19.067,20.6A1.083,1.083,0,0,1,20.6,19.067l3.521,3.521a1.083,1.083,0,0,1-.766,1.849Z" transform="translate(1.562 1.562)" fill="#111214"/>
</svg>
