<svg xmlns="http://www.w3.org/2000/svg" width="33.654" height="33.655" viewBox="0 0 33.654 33.655">
  <path id="email" d="M33.655,30.5A3.155,3.155,0,0,1,30.5,33.654H3.155A3.155,3.155,0,0,1,0,30.5V13.194a3.155,3.155,0,0,1,1.209-2.483C2.846,9.427,4.2,8.386,12,2.724,13.108,1.917,15.3-.023,16.827,0c1.525-.023,3.72,1.918,4.826,2.723,7.8,5.662,9.157,6.7,10.793,7.987a3.155,3.155,0,0,1,1.209,2.483ZM29.338,17.576a.525.525,0,0,0-.745-.125c-1.5,1.109-3.646,2.676-6.94,5.067-1.106.806-3.3,2.746-4.826,2.723C15.3,25.263,13.11,23.325,12,22.517c-3.294-2.391-5.438-3.957-6.94-5.067a.525.525,0,0,0-.745.125l-.6.867a.526.526,0,0,0,.121.721c1.5,1.111,3.645,2.675,6.922,5.053,1.333.972,3.715,3.143,6.065,3.127,2.348.016,4.73-2.154,6.065-3.127,3.277-2.378,5.417-3.942,6.922-5.053a.526.526,0,0,0,.121-.721Z" transform="translate(0 0)" fill="#fff"/>
</svg>
