<svg xmlns="http://www.w3.org/2000/svg" width="30" height="30" viewBox="0 0 30 30">
  <g id="HIW_3_Mobile" data-name="HIW 3 Mobile" transform="translate(-2928 -13625)">
    <rect id="Rectangle_42" data-name="Rectangle 42" width="30" height="30" transform="translate(2928 13625)" fill="#32e875" opacity="0"/>
    <g id="money-bag" transform="translate(2931 13628)">
      <path id="Path_977" data-name="Path 977" d="M343.748,323.921l-2.151,2.15-.827-.827a.7.7,0,1,0-.993.993l1.323,1.323a.7.7,0,0,0,.992,0l2.647-2.647a.7.7,0,0,0-.992-.993Z" transform="translate(-323.684 -308.569)" fill="#32e875"/>
      <path id="Path_978" data-name="Path 978" d="M152.838,237.707c-.108-.038-.219-.078-.329-.119v-1.979a.859.859,0,0,1,.322.186.585.585,0,0,0,.879-.772,2.076,2.076,0,0,0-1.2-.615v-.322a.585.585,0,0,0-1.17,0v.387l-.124.035a2.01,2.01,0,0,0-1.378,1.576,1.784,1.784,0,0,0,.589,1.757,4.44,4.44,0,0,0,.913.533v2.569a1.84,1.84,0,0,1-.826-.347.585.585,0,0,0-.64.979,2.9,2.9,0,0,0,1.467.545v.389a.585.585,0,1,0,1.17,0v-.443a2.33,2.33,0,0,0,1.03-.552,2.442,2.442,0,0,0,.752-1.387A2.112,2.112,0,0,0,152.838,237.707Zm-1.691-.788a.639.639,0,0,1-.161-.62.9.9,0,0,1,.353-.569v1.321A2.208,2.208,0,0,1,151.147,236.919Zm1.99,3.011a1.258,1.258,0,0,1-.628.889v-1.987A.948.948,0,0,1,153.137,239.93Z" transform="translate(-142.607 -222.575)" fill="#32e875"/>
      <path id="Path_979" data-name="Path 979" d="M23.254,12.259a2.314,2.314,0,0,1-2.081-1.286l-.1-.2a.7.7,0,0,0-.628-.388H16.7a.7.7,0,0,0-.628.388l-.1.2a2.376,2.376,0,0,1-.125.22,33.937,33.937,0,0,0-2.985-3.431V5.468a7.316,7.316,0,0,0,1.4-4.3V.7a.7.7,0,0,0-.7-.7H13.1A9.271,9.271,0,0,0,9.358,1.251,9.271,9.271,0,0,0,5.615,0H5.147a.7.7,0,0,0-.7.7V1.17a7.316,7.316,0,0,0,1.4,4.3V7.762C2.923,10.77,0,14.392,0,18.575v.05a5.39,5.39,0,0,0,5.419,5.33H13.3a5.462,5.462,0,0,0,3.1-.965,7.262,7.262,0,0,0,1.979.935.7.7,0,0,0,.4,0,7.267,7.267,0,0,0,5.179-6.961V12.961a.7.7,0,0,0-.7-.7Zm-16-6.317h4.211v1.4H7.252ZM9,2.661a.7.7,0,0,0,.72,0,9.959,9.959,0,0,1,3.145-1.244A5.838,5.838,0,0,1,11.8,4.539H6.911A5.838,5.838,0,0,1,5.854,1.418,9.958,9.958,0,0,1,9,2.661ZM5.419,22.552A3.984,3.984,0,0,1,1.4,18.623v-.048c0-3.681,2.717-7.023,5.442-9.826H11.87a32.293,32.293,0,0,1,2.9,3.341,2.335,2.335,0,0,1-.874.169.7.7,0,0,0-.7.7v4.005A7.216,7.216,0,0,0,14.631,21.3a7.365,7.365,0,0,0,.63.74,4.056,4.056,0,0,1-1.965.509Zm17.134-5.587a5.826,5.826,0,0,1-3.977,5.552A5.826,5.826,0,0,1,14.6,16.966V13.6a3.7,3.7,0,0,0,2.532-1.806H20.02A3.7,3.7,0,0,0,22.552,13.6Z" transform="translate(0 0)" fill="#32e875"/>
    </g>
  </g>
</svg>
