<svg xmlns="http://www.w3.org/2000/svg" width="50" height="50" viewBox="0 0 50 50">
  <g id="How_It_works_3" data-name="How It works 3" transform="translate(-2928 -13625)">
    <rect id="Rectangle_42" data-name="Rectangle 42" width="50" height="50" transform="translate(2928 13625)" fill="#32e875" opacity="0"/>
    <g id="money-bag" transform="translate(2933 13630)">
      <path id="Path_977" data-name="Path 977" d="M346.532,324.058l-3.584,3.584-1.379-1.379a1.17,1.17,0,1,0-1.654,1.654l2.206,2.206a1.169,1.169,0,0,0,1.654,0l4.411-4.411a1.17,1.17,0,1,0-1.654-1.654Z" transform="translate(-313.092 -298.471)" fill="#32e875"/>
      <path id="Path_978" data-name="Path 978" d="M154.991,240.511c-.181-.064-.365-.13-.549-.2v-3.3a1.431,1.431,0,0,1,.537.31.975.975,0,0,0,1.465-1.287,3.459,3.459,0,0,0-2-1.025v-.537a.975.975,0,1,0-1.95,0v.645q-.1.027-.207.058a3.35,3.35,0,0,0-2.3,2.626,2.973,2.973,0,0,0,.981,2.928,7.4,7.4,0,0,0,1.522.888V245.9a3.066,3.066,0,0,1-1.377-.578.975.975,0,0,0-1.067,1.632,4.826,4.826,0,0,0,2.444.908v.648a.975.975,0,1,0,1.95,0v-.739a3.883,3.883,0,0,0,1.716-.92,4.071,4.071,0,0,0,1.254-2.312A3.52,3.52,0,0,0,154.991,240.511Zm-2.818-1.313a1.066,1.066,0,0,1-.269-1.033,1.508,1.508,0,0,1,.588-.948v2.2A3.679,3.679,0,0,1,152.174,239.2Zm3.316,5.019a2.1,2.1,0,0,1-1.047,1.483v-3.312A1.581,1.581,0,0,1,155.49,244.217Z" transform="translate(-137.94 -215.291)" fill="#32e875"/>
      <path id="Path_979" data-name="Path 979" d="M38.757,20.431a3.857,3.857,0,0,1-3.468-2.143l-.165-.329a1.17,1.17,0,0,0-1.046-.647H27.84a1.17,1.17,0,0,0-1.046.647l-.165.329a3.959,3.959,0,0,1-.208.366,56.562,56.562,0,0,0-4.975-5.718V9.114A12.194,12.194,0,0,0,23.785,1.95V1.17A1.17,1.17,0,0,0,22.615,0h-.78C19.669,0,16.843,1.4,15.6,2.086,14.35,1.4,11.524,0,9.358,0h-.78a1.17,1.17,0,0,0-1.17,1.17v.78A12.194,12.194,0,0,0,9.748,9.114v3.823C4.871,17.95,0,23.987,0,30.959v.084a8.983,8.983,0,0,0,9.031,8.884h13.13a9.1,9.1,0,0,0,5.163-1.608,12.1,12.1,0,0,0,3.3,1.558,1.169,1.169,0,0,0,.672,0,12.112,12.112,0,0,0,8.632-11.6V21.6a1.17,1.17,0,0,0-1.17-1.17ZM12.087,9.9h7.018v2.339H12.087ZM15,4.435a1.171,1.171,0,0,0,1.2,0,16.6,16.6,0,0,1,5.241-2.073,9.73,9.73,0,0,1-1.763,5.2H11.519a9.73,9.73,0,0,1-1.763-5.2A16.6,16.6,0,0,1,15,4.435ZM9.031,37.587A6.639,6.639,0,0,1,2.34,31.039v-.08c0-6.134,4.528-11.7,9.071-16.376h8.373a53.822,53.822,0,0,1,4.835,5.568,3.891,3.891,0,0,1-1.457.281,1.17,1.17,0,0,0-1.17,1.17v6.675a12.026,12.026,0,0,0,2.395,7.23,12.275,12.275,0,0,0,1.05,1.233,6.76,6.76,0,0,1-3.274.848Zm28.556-9.311a9.709,9.709,0,0,1-6.628,9.253,9.709,9.709,0,0,1-6.628-9.253V22.662a6.172,6.172,0,0,0,4.221-3.01h4.815a6.172,6.172,0,0,0,4.221,3.01Z" fill="#32e875"/>
    </g>
  </g>
</svg>
