<svg xmlns="http://www.w3.org/2000/svg" width="50" height="50" viewBox="0 0 50 50">
  <g id="How_It_works_2" data-name="How It works 2" transform="translate(-1010 -11120)">
    <rect id="Rectangle_37" data-name="Rectangle 37" width="50" height="50" transform="translate(1010 11120)" fill="#32e875" opacity="0"/>
    <g id="_002-antivirus" data-name="002-antivirus" transform="translate(1015 11125)">
      <g id="Group_354" data-name="Group 354" transform="translate(0)">
        <g id="Group_353" data-name="Group 353">
          <path id="Path_972" data-name="Path 972" d="M194.961,87.279l-2.189-1.563a1.563,1.563,0,0,0-.909-.291h-1.372a4.691,4.691,0,0,0-1.822-3.115l1.641-1.641a1.563,1.563,0,0,0-2.211-2.211l-2.268,2.268L183.5,78.445a1.563,1.563,0,1,0-2.185,2.236L183,82.327a4.692,4.692,0,0,0-1.79,3.02h-1.3a1.565,1.565,0,0,0-.836.242l-2.345,1.485a1.563,1.563,0,1,0,1.673,2.641l1.962-1.242h.8V90.74h-.625a1.563,1.563,0,0,0-.931.308l-2.423,1.8a1.563,1.563,0,1,0,1.863,2.511l2.008-1.49h.351a4.689,4.689,0,0,0,8.868.078h.424l1.917,1.533a1.563,1.563,0,1,0,1.953-2.441l-2.345-1.876a1.563,1.563,0,0,0-.977-.343h-.7V88.551h.828l1.781,1.272a1.563,1.563,0,1,0,1.817-2.544Zm-7.552,5.1a1.563,1.563,0,0,1-3.126,0V86.05a1.563,1.563,0,0,1,3.126,0Z" transform="translate(-162.241 -71.903)" fill="#32e875"/>
          <path id="Path_973" data-name="Path 973" d="M23.605,0A16.4,16.4,0,0,0,10.984,26.9L.462,37.346a1.563,1.563,0,1,0,2.2,2.218L13.2,29.1A16.4,16.4,0,0,0,31.64,30.729,1.563,1.563,0,1,0,30.108,28a13.281,13.281,0,1,1,5.048-5.018,1.563,1.563,0,0,0,2.716,1.549A16.418,16.418,0,0,0,23.605,0Z" transform="translate(-0.001)" fill="#32e875"/>
        </g>
      </g>
    </g>
  </g>
</svg>
