<svg xmlns="http://www.w3.org/2000/svg" width="50" height="50" viewBox="0 0 50 50">
  <g id="How_It_works_1" data-name="How It works 1" transform="translate(-2809 -13625)">
    <rect id="Rectangle_14" data-name="Rectangle 14" width="50" height="50" transform="translate(2809 13625)" fill="#32e875" opacity="0"/>
    <g id="Group_363" data-name="Group 363" transform="translate(0 -2.823)">
      <path id="Path_967" data-name="Path 967" d="M125.421,201.542A1.542,1.542,0,0,0,123.879,200H108a1.542,1.542,0,1,0,0,3.083h15.879A1.542,1.542,0,0,0,125.421,201.542Z" transform="translate(2716.333 13446.239)" fill="#32e875"/>
      <path id="Path_968" data-name="Path 968" d="M108,280a1.542,1.542,0,1,0,0,3.083h9.644a1.542,1.542,0,1,0,0-3.083Z" transform="translate(2716.333 13372.405)" fill="#32e875"/>
      <path id="Path_969" data-name="Path 969" d="M37.892,36.382H32.736A3.087,3.087,0,0,1,29.653,33.3V6.166a3.087,3.087,0,0,1,3.083-3.083H51.69a3.087,3.087,0,0,1,3.083,3.083v9.481a1.542,1.542,0,0,0,3.083,0V6.166A6.173,6.173,0,0,0,51.69,0H32.736A6.173,6.173,0,0,0,26.57,6.166V33.3a6.173,6.173,0,0,0,6.166,6.166h5.156a1.542,1.542,0,1,0,0-3.083Z" transform="translate(2790.064 13630.823)" fill="#32e875"/>
      <path id="Path_971" data-name="Path 971" d="M123.879,120H108a1.542,1.542,0,1,0,0,3.083h15.879a1.542,1.542,0,1,0,0-3.083Z" transform="translate(2716.333 13520.073)" fill="#32e875"/>
      <path id="Path_981" data-name="Path 981" d="M189.5,120.649a1.457,1.457,0,0,0-2.425,0l-5.829,8.744a1.457,1.457,0,0,0,0,1.617l5.829,8.744a1.457,1.457,0,0,0,2.425,0l5.829-8.744a1.457,1.457,0,0,0,0-1.617Zm-1.213,15.669-2.511-3.766,2.169.524a1.46,1.46,0,0,0,.684,0l2.169-.524Zm0-6.159-3.489-.842,3.489-5.233,3.489,5.233Zm0,0" transform="translate(2653.586 13533.938)" fill="#32e875"/>
    </g>
  </g>
</svg>
