<svg xmlns="http://www.w3.org/2000/svg" width="20" height="20" viewBox="0 0 20 20">
  <g id="Popup_File_Icon_Mobile" data-name="Popup File Icon Mobile" transform="translate(0.455 0.455)">
    <rect id="Rectangle_14" data-name="Rectangle 14" width="20" height="20" transform="translate(-0.455 -0.455)" fill="#191923" opacity="0"/>
    <g id="Group_363" data-name="Group 363" transform="translate(2.974 1.169)">
      <path id="Path_967" data-name="Path 967" d="M113.847,200.6a.6.6,0,0,0-.6-.6H107.06a.6.6,0,0,0,0,1.2h6.186A.6.6,0,0,0,113.847,200.6Z" transform="translate(-104.06 -193.994)" fill="#191923"/>
      <path id="Path_968" data-name="Path 968" d="M107.06,280a.6.6,0,1,0,0,1.2h3.757a.6.6,0,1,0,0-1.2Z" transform="translate(-104.06 -271.591)" fill="#191923"/>
      <path id="Path_969" data-name="Path 969" d="M30.981,14.175H28.973a1.2,1.2,0,0,1-1.2-1.2V2.4a1.2,1.2,0,0,1,1.2-1.2h7.384a1.2,1.2,0,0,1,1.2,1.2V6.1a.6.6,0,0,0,1.2,0V2.4a2.4,2.4,0,0,0-2.4-2.4H28.973a2.4,2.4,0,0,0-2.4,2.4V12.973a2.4,2.4,0,0,0,2.4,2.4h2.009a.6.6,0,1,0,0-1.2Z" transform="translate(-26.57 0)" fill="#191923"/>
      <path id="Path_971" data-name="Path 971" d="M113.246,120H107.06a.6.6,0,0,0,0,1.2h6.186a.6.6,0,1,0,0-1.2Z" transform="translate(-104.06 -116.396)" fill="#191923"/>
      <path id="Path_981" data-name="Path 981" d="M184.311,120.253a.568.568,0,0,0-.945,0l-2.271,3.407a.568.568,0,0,0,0,.63l2.271,3.407a.568.568,0,0,0,.945,0l2.271-3.407a.568.568,0,0,0,0-.63Zm-.472,6.1-.978-1.467.845.2a.569.569,0,0,0,.266,0l.845-.2Zm0-2.4-1.359-.328,1.359-2.039,1.359,2.039Zm0,0" transform="translate(-174.006 -110.995)" fill="#191923"/>
    </g>
  </g>
</svg>
