<svg xmlns="http://www.w3.org/2000/svg" width="41.653" height="33.83" viewBox="0 0 41.653 33.83">
  <path id="twitter" d="M37.371,56.513c.026.37.026.74.026,1.11,0,11.285-8.589,24.289-24.289,24.289A24.124,24.124,0,0,1,0,78.079a17.66,17.66,0,0,0,2.061.106,17.1,17.1,0,0,0,10.6-3.647,8.552,8.552,0,0,1-7.982-5.92,10.765,10.765,0,0,0,1.612.132,9.028,9.028,0,0,0,2.246-.291,8.538,8.538,0,0,1-6.845-8.378v-.106A8.6,8.6,0,0,0,5.55,61.059,8.549,8.549,0,0,1,2.907,49.641a24.265,24.265,0,0,0,17.6,8.933,9.637,9.637,0,0,1-.211-1.956,8.545,8.545,0,0,1,14.774-5.841,16.807,16.807,0,0,0,5.418-2.061,8.514,8.514,0,0,1-3.753,4.7A17.113,17.113,0,0,0,41.653,52.1a18.35,18.35,0,0,1-4.281,4.414Z" transform="translate(0 -48.082)" fill="#fff"/>
</svg>
