<svg xmlns="http://www.w3.org/2000/svg" width="44.43" height="31.24" viewBox="0 0 44.43 31.24">
  <path id="youtube" d="M58.434,68.888a5.583,5.583,0,0,0-3.928-3.954C51.041,64,37.148,64,37.148,64s-13.893,0-17.358.934a5.583,5.583,0,0,0-3.928,3.954c-.928,3.487-.928,10.763-.928,10.763s0,7.276.928,10.763a5.5,5.5,0,0,0,3.928,3.89c3.465.934,17.358.934,17.358.934s13.893,0,17.358-.934a5.5,5.5,0,0,0,3.928-3.89c.928-3.487.928-10.763.928-10.763s0-7.276-.928-10.763ZM32.6,86.257V73.045l11.612,6.606L32.6,86.257Z" transform="translate(-14.933 -64)" fill="#fff"/>
</svg>
